<svg xmlns="http://www.w3.org/2000/svg" version="1.1" viewBox="0 0 1945 1500">
  <g>
    <path d="M859.3,817.7c-1.4-8.5,1.3-21.2,5.6-24s11.6-23,9-35.3"/>
    <path d="M873.9,758.5c7.4-.8,22.7,2.2,27.7,5.7,13.1,8.9,37.5,8.1,47.9-10.8"/>
    <path d="M949.5,753.4c2.7-8.9,7.8-.5,10,3.5s6.1,16.7,18.3,15.3,12.9-5.1,22.8-1.4,18,16,19.7,17,9.2,2.6,14.8,2.1,2.2.3,2.9,1.2,3.1,2,8.2.9c8.9-2,3.1,9.2,8.5,14.3s8.2,1.7,12.3,4.1,8.9,10.2,9.9,17,1.7,19.1,3.4,22.8,4.1,12.6,4.1,12.6"/>
    <path d="M949.5,753.4c0-9.6,30.1-22.2,36.9-25.2,9.2-4.1,32.6-10.9,34.8-10.6"/>
    <path d="M1021.2,717.6c9.2,13.4,117.4,112.8,152.1,124.5"/>
    <path d="M1084.4,862.6c11.1-7.3,36.9-13,52.2-12.4,24.5,1,36.8-8.2,36.8-8.2"/>
    <path d="M1312,870.5c6.2.2,13.3-.2,25.3-1.2"/>
    <path d="M1286.2,869.3c2.4-.3,5-.4,8.2-.1,6.7.5,11.6,1.1,17.6,1.3"/>
    <path d="M1084.4,862.6c12.6-3.7,45.1-6.3,73.7-6.3s40.6,3.6,59.1,3.6,26.2,8.9,47,11.2c10.2,1.2,15-1.1,22.1-1.9"/>
    <path d="M1173.3,842.1c15.1,7.7,26.7,9,50.2,13.1s33.3,12,47,11.2,66.8,2.9,66.8,2.9"/>
    <!-- <line x1="1337.3" y1="869.3" x2="1650" y2="373.1"/>
    <line x1="1650" y1="373.1" x2="1636.9" y2="361.4"/> -->
    <path d="M1337.3,869.3 L1650,373.1"/>
    <path d="M1650,373.1 L1636.9,361.4"/>
    <path d="M1636.9,361.4c5.8-23,4.1-61.8,9.5-75.4,10.9-27.6,18.7-53.8,11.6-70.1"/>
    <!-- <line x1="1657.9" y1="215.9" x2="1702.2" y2="287.7"/>
    <line x1="1702.2" y1="287.7" x2="1657.9" y2="215.9"/> -->
    <path d="M1657.9,215.9 L1702.2,287.7"/>
    <path d="M1702.2,287.7 L1657.9,215.9"/>
    <path d="M1657.9,215.9c7.1,16.3-.7,42.6-11.6,70.1-5.4,13.6-3.7,52.4-9.5,75.4"/>
  </g>
</svg>